name rise35.5848peak51.9257fall54.8793.mot
datacolumns 19
datarows 24
range 6.44497500000000 6.48331400000000
endheader
time	ground_force1_vx	ground_force1_vy	ground_force1_vz	ground_force1_px	ground_force1_py	ground_force1_pz	ground_force2_vx	ground_force2_vy	ground_force2_vz	ground_force2_px	ground_force2_py	ground_force2_pz	ground_torque1_x	ground_torque1_y	ground_torque1_z	ground_torque2_x	ground_torque2_y	ground_torque2_z	
6.44497500000000	52.24854500000000	763.38607000000002	45.06351600000000	0.29340000000000	0.00000000000000	0.07716100000000	0.00000000000000	0.00000000000000	0.00000000000000	0.00000000000000	0.00000000000000	0.00000000000000	0.00000000000000	18.19540800000000	0.00000000000000	0.00000000000000	0.00000000000000	0.00000000000000	
6.44663800000000	51.77325800000000	766.30050700000004	45.19987000000000	0.29257500000000	0.00000000000000	0.07713100000000	0.00000000000000	0.00000000000000	0.00000000000000	0.00000000000000	0.00000000000000	0.00000000000000	0.00000000000000	18.25035500000000	0.00000000000000	0.00000000000000	0.00000000000000	0.00000000000000	
6.44830400000000	51.30399400000000	769.09799199999998	45.33075700000000	0.29176700000000	0.00000000000000	0.07710000000000	0.00000000000000	0.00000000000000	0.00000000000000	0.00000000000000	0.00000000000000	0.00000000000000	0.00000000000000	18.30269900000000	0.00000000000000	0.00000000000000	0.00000000000000	0.00000000000000	
6.44997100000000	50.84126700000000	771.77760200000000	45.45604600000000	0.29097600000000	0.00000000000000	0.07706700000000	0.00000000000000	0.00000000000000	0.00000000000000	0.00000000000000	0.00000000000000	0.00000000000000	0.00000000000000	18.35233600000000	0.00000000000000	0.00000000000000	0.00000000000000	0.00000000000000	
6.45163400000000	50.38551800000000	774.33843999999999	45.57556500000000	0.29020000000000	0.00000000000000	0.07703300000000	0.00000000000000	0.00000000000000	0.00000000000000	0.00000000000000	0.00000000000000	0.00000000000000	0.00000000000000	18.39914800000000	0.00000000000000	0.00000000000000	0.00000000000000	0.00000000000000	
6.45331900000000	49.93711500000000	776.77964799999995	45.68910500000000	0.28943700000000	0.00000000000000	0.07699700000000	0.00000000000000	0.00000000000000	0.00000000000000	0.00000000000000	0.00000000000000	0.00000000000000	0.00000000000000	18.44299400000000	0.00000000000000	0.00000000000000	0.00000000000000	0.00000000000000	
6.45497500000000	49.49635200000000	779.10040800000002	45.79642500000000	0.28868700000000	0.00000000000000	0.07696100000000	0.00000000000000	0.00000000000000	0.00000000000000	0.00000000000000	0.00000000000000	0.00000000000000	0.00000000000000	18.48372000000000	0.00000000000000	0.00000000000000	0.00000000000000	0.00000000000000	
6.45663600000000	49.06345500000000	781.29996000000006	45.89725400000000	0.28794800000000	0.00000000000000	0.07692300000000	0.00000000000000	0.00000000000000	0.00000000000000	0.00000000000000	0.00000000000000	0.00000000000000	0.00000000000000	18.52115900000000	0.00000000000000	0.00000000000000	0.00000000000000	0.00000000000000	
6.45831600000000	48.63858200000000	783.37760600000001	45.99130000000000	0.28721900000000	0.00000000000000	0.07688400000000	0.00000000000000	0.00000000000000	0.00000000000000	0.00000000000000	0.00000000000000	0.00000000000000	0.00000000000000	18.55513200000000	0.00000000000000	0.00000000000000	0.00000000000000	0.00000000000000	
6.45997200000000	48.22182600000000	785.33271999999999	46.07824500000000	0.28649800000000	0.00000000000000	0.07684400000000	0.00000000000000	0.00000000000000	0.00000000000000	0.00000000000000	0.00000000000000	0.00000000000000	0.00000000000000	18.58545300000000	0.00000000000000	0.00000000000000	0.00000000000000	0.00000000000000	
6.46163900000000	47.81322000000000	787.16475700000001	46.15775900000000	0.28578300000000	0.00000000000000	0.07680300000000	0.00000000000000	0.00000000000000	0.00000000000000	0.00000000000000	0.00000000000000	0.00000000000000	0.00000000000000	18.61192900000000	0.00000000000000	0.00000000000000	0.00000000000000	0.00000000000000	
6.46330100000000	47.41273700000000	788.87325899999996	46.22950000000000	0.28507400000000	0.00000000000000	0.07676100000000	0.00000000000000	0.00000000000000	0.00000000000000	0.00000000000000	0.00000000000000	0.00000000000000	0.00000000000000	18.63436400000000	0.00000000000000	0.00000000000000	0.00000000000000	0.00000000000000	
6.46496700000000	47.02029300000000	790.45786899999996	46.29311600000000	0.28436800000000	0.00000000000000	0.07671800000000	0.00000000000000	0.00000000000000	0.00000000000000	0.00000000000000	0.00000000000000	0.00000000000000	0.00000000000000	18.65256000000000	0.00000000000000	0.00000000000000	0.00000000000000	0.00000000000000	
6.46663800000000	46.63575500000000	791.91833399999996	46.34825500000000	0.28366500000000	0.00000000000000	0.07667400000000	0.00000000000000	0.00000000000000	0.00000000000000	0.00000000000000	0.00000000000000	0.00000000000000	0.00000000000000	18.66632300000000	0.00000000000000	0.00000000000000	0.00000000000000	0.00000000000000	
6.46831200000000	46.25894000000000	793.25451399999997	46.39456400000000	0.28296200000000	0.00000000000000	0.07663000000000	0.00000000000000	0.00000000000000	0.00000000000000	0.00000000000000	0.00000000000000	0.00000000000000	0.00000000000000	18.67545800000000	0.00000000000000	0.00000000000000	0.00000000000000	0.00000000000000	
6.46996700000000	45.88962000000000	794.46639000000005	46.43169500000000	0.28225900000000	0.00000000000000	0.07658500000000	0.00000000000000	0.00000000000000	0.00000000000000	0.00000000000000	0.00000000000000	0.00000000000000	0.00000000000000	18.67977900000000	0.00000000000000	0.00000000000000	0.00000000000000	0.00000000000000	
6.47164200000000	45.52752800000000	795.55407000000002	46.45930700000000	0.28155400000000	0.00000000000000	0.07653900000000	0.00000000000000	0.00000000000000	0.00000000000000	0.00000000000000	0.00000000000000	0.00000000000000	0.00000000000000	18.67910600000000	0.00000000000000	0.00000000000000	0.00000000000000	0.00000000000000	
6.47331100000000	45.17235800000000	796.51779599999998	46.47707500000000	0.28084600000000	0.00000000000000	0.07649200000000	0.00000000000000	0.00000000000000	0.00000000000000	0.00000000000000	0.00000000000000	0.00000000000000	0.00000000000000	18.67327000000000	0.00000000000000	0.00000000000000	0.00000000000000	0.00000000000000	
6.47497100000000	44.82377200000000	797.35794899999996	46.48468700000000	0.28013300000000	0.00000000000000	0.07644500000000	0.00000000000000	0.00000000000000	0.00000000000000	0.00000000000000	0.00000000000000	0.00000000000000	0.00000000000000	18.66211200000000	0.00000000000000	0.00000000000000	0.00000000000000	0.00000000000000	
6.47663800000000	44.48140500000000	798.07505400000002	46.48184900000000	0.27941500000000	0.00000000000000	0.07639700000000	0.00000000000000	0.00000000000000	0.00000000000000	0.00000000000000	0.00000000000000	0.00000000000000	0.00000000000000	18.64548500000000	0.00000000000000	0.00000000000000	0.00000000000000	0.00000000000000	
6.47831100000000	44.14486500000000	798.66978600000004	46.46829100000000	0.27868900000000	0.00000000000000	0.07634800000000	0.00000000000000	0.00000000000000	0.00000000000000	0.00000000000000	0.00000000000000	0.00000000000000	0.00000000000000	18.62325900000000	0.00000000000000	0.00000000000000	0.00000000000000	0.00000000000000	
6.47996900000000	43.81374100000000	799.14297499999998	46.44376500000000	0.27795500000000	0.00000000000000	0.07629900000000	0.00000000000000	0.00000000000000	0.00000000000000	0.00000000000000	0.00000000000000	0.00000000000000	0.00000000000000	18.59531700000000	0.00000000000000	0.00000000000000	0.00000000000000	0.00000000000000	
6.48163400000000	43.48760300000000	799.49560599999995	46.40805200000000	0.27721300000000	0.00000000000000	0.07624900000000	0.00000000000000	0.00000000000000	0.00000000000000	0.00000000000000	0.00000000000000	0.00000000000000	0.00000000000000	18.56156300000000	0.00000000000000	0.00000000000000	0.00000000000000	0.00000000000000	
6.48331400000000	43.16601000000000	799.72882500000003	46.36096100000000	0.27646000000000	0.00000000000000	0.07619900000000	0.00000000000000	0.00000000000000	0.00000000000000	0.00000000000000	0.00000000000000	0.00000000000000	0.00000000000000	18.52191500000000	0.00000000000000	0.00000000000000	0.00000000000000	0.00000000000000	
